# xmcd
#
# Track frame offsets:
# 150
# 15912
# 32892
# 44767
# 63215
# 79445
# 91970
# 109747
# 127397
# 140375
# 157102
# 178715
#
# Disc length: 2523 seconds
#
#
# Revision: 0
# Processed by: cddbd v1.5.1PL0 Copyright (c) Steve Scherf et al.
# Submitted via: FreeRIP 2.53 
#
DISCID=a709d90c
DTITLE=Vários - Tributo a Chitãozinho e Xororó
DYEAR=1900
DGENRE=Country
TTITLE0=Deixei de ser Cowboy por ela
TTITLE1=Eu menti
TTITLE2=Fio de Cabelo
TTITLE3=Pode ser pra valer
TTITLE4=Pensando em minha amada
TTITLE5=Não desligue o rádio
TTITLE6=Doce pecado
TTITLE7=Confidências
TTITLE8=Vá pro inferno com seu amor
TTITLE9=Coração deserto
TTITLE10=Evidências
TTITLE11=Pura emoção
EXTD=
EXTT0=
EXTT1=
EXTT2=
EXTT3=
EXTT4=
EXTT5=
EXTT6=
EXTT7=
EXTT8=
EXTT9=
EXTT10=
EXTT11=
PLAYORDER=
